<?xml version="1.0" encoding="utf-8"?>
<!-- Generator: Adobe Illustrator 16.0.0, SVG Export Plug-In . SVG Version: 6.00 Build 0)  -->
<!DOCTYPE svg PUBLIC "-//W3C//DTD SVG 1.1//EN" "http://www.w3.org/Graphics/SVG/1.1/DTD/svg11.dtd">
<svg version="1.1" id="Layer_1" xmlns="http://www.w3.org/2000/svg" xmlns:xlink="http://www.w3.org/1999/xlink" x="0px" y="0px"
	 width="308px" height="308px" viewBox="0 0 308 308" enable-background="new 0 0 308 308" xml:space="preserve">
<circle fill="#ED1C24" stroke="#E91D25" stroke-width="3" stroke-miterlimit="10" cx="153.676" cy="153.703" r="150"/>
<radialGradient id="SVGID_1_" cx="152.1484" cy="155.5938" r="95.7503" gradientUnits="userSpaceOnUse">
	<stop  offset="0.0418" style="stop-color:#FFFFFF"/>
	<stop  offset="1" style="stop-color:#FBB040"/>
</radialGradient>
<ellipse fill="url(#SVGID_1_)" stroke="#FBB040" stroke-width="3" stroke-miterlimit="10" cx="152.148" cy="155.594" rx="96" ry="95.5"/>
<g>
	<g>
		<g>
			<path fill="#FAA631" stroke="#FAA631" stroke-width="3" stroke-miterlimit="10" d="M166.648,49.032c0,13.151-12,23.813-12,23.813
				s-12-10.661-12-23.813c0-6.416-2.079-13.906,0-18.188c2.183-4.494,8.606-5.625,12-5.625c3.547,0,9.803,2.646,12,7.5
				C168.556,36.937,166.648,42.919,166.648,49.032z"/>
			<g>
				<g>
					<path fill="#C75E28" d="M146.773,49.22c0,2,0,4,0,6c0,4.088,3.412,7.5,7.5,7.5c4.089,0,7.5-3.412,7.5-7.5c0-2,0-4,0-6
						c0-4.088-3.411-7.5-7.5-7.5C150.185,41.72,146.773,45.131,146.773,49.22L146.773,49.22z"/>
				</g>
			</g>
		</g>
		<g>
			<path fill="#FAA631" stroke="#FAA631" stroke-width="3" stroke-miterlimit="10" d="M142.572,256.812
				c0-13.151,12-23.813,12-23.813s12,10.661,12,23.813c0,6.416,2.078,13.905,0,18.188c-2.183,4.494-8.605,5.625-12,5.625
				c-3.546,0-9.803-2.646-12-7.5C140.665,268.906,142.572,262.924,142.572,256.812z"/>
			<g>
				<g>
					<path fill="#C75E28" d="M162.447,256.624c0-2,0-4,0-6c0-4.089-3.411-7.5-7.5-7.5c-4.088,0-7.5,3.411-7.5,7.5c0,2,0,4,0,6
						c0,4.089,3.412,7.5,7.5,7.5C159.036,264.124,162.447,260.713,162.447,256.624L162.447,256.624z"/>
				</g>
			</g>
		</g>
	</g>
	<g>
		<g>
			<path fill="#FAA631" stroke="#FAA631" stroke-width="3" stroke-miterlimit="10" d="M216.98,68.97
				c-6.576,11.389-22.298,14.622-22.298,14.622s-5.063-15.233,1.513-26.622c3.209-5.556,5.154-13.083,9.094-15.751
				c4.137-2.801,10.266-0.568,13.206,1.129c3.07,1.772,7.166,7.192,6.642,12.495C224.68,59.449,220.036,63.676,216.98,68.97z"/>
			<g>
				<g>
					<path fill="#C75E28" d="M199.694,59.16c-1.001,1.731-2.001,3.463-3,5.195c-2.045,3.542-0.849,8.189,2.69,10.262
						c3.512,2.057,8.221,0.845,10.261-2.69c1-1.732,2-3.464,3-5.196c2.046-3.541,0.848-8.189-2.69-10.261
						C206.442,54.412,201.735,55.625,199.694,59.16L199.694,59.16z"/>
				</g>
			</g>
		</g>
		<g>
			<path fill="#FAA631" stroke="#FAA631" stroke-width="3" stroke-miterlimit="10" d="M92.24,236.873
				c6.576-11.389,22.298-14.621,22.298-14.621s5.063,15.232-1.513,26.621c-3.208,5.557-5.153,13.083-9.094,15.752
				c-4.137,2.801-10.266,0.568-13.206-1.129c-3.07-1.773-7.166-7.193-6.642-12.496C84.541,246.395,89.185,242.168,92.24,236.873z"/>
			<g>
				<g>
					<path fill="#C75E28" d="M109.527,246.684c1-1.731,2-3.463,3-5.195c2.044-3.542,0.848-8.188-2.691-10.261
						c-3.512-2.058-8.221-0.845-10.261,2.69c-1,1.731-2,3.464-3,5.195c-2.045,3.541-0.847,8.188,2.691,10.261
						C102.778,251.433,107.485,250.219,109.527,246.684L109.527,246.684z"/>
				</g>
			</g>
		</g>
	</g>
	<g>
		<g>
			<path fill="#FAA631" stroke="#FAA631" stroke-width="3" stroke-miterlimit="10" d="M250.6,111.402
				c-11.389,6.576-26.62,1.515-26.62,1.515s3.231-15.724,14.62-22.299c5.557-3.208,11.004-8.752,15.752-9.094
				c4.983-0.357,9.174,4.641,10.872,7.581c1.772,3.07,2.608,9.812-0.497,14.142C262.029,107.006,255.895,108.345,250.6,111.402z"/>
			<g>
				<g>
					<path fill="#C75E28" d="M240.465,94.303c-1.731,1-3.464,2-5.195,3c-3.535,2.041-4.748,6.75-2.69,10.261
						c2.072,3.539,6.719,4.735,10.261,2.691c1.732-1,3.464-2,5.195-3c3.535-2.042,4.749-6.749,2.69-10.261
						C248.653,93.456,244.006,92.258,240.465,94.303L240.465,94.303z"/>
				</g>
			</g>
		</g>
		<g>
			<path fill="#FAA631" stroke="#FAA631" stroke-width="3" stroke-miterlimit="10" d="M58.621,194.441
				c11.389-6.576,26.621-1.515,26.621-1.515s-3.231,15.724-14.621,22.3c-5.556,3.207-11.004,8.752-15.751,9.094
				c-4.983,0.357-9.174-4.641-10.872-7.581c-1.772-3.07-2.609-9.812,0.497-14.142C47.192,198.838,53.327,197.498,58.621,194.441z"/>
			<g>
				<g>
					<path fill="#C75E28" d="M68.756,211.54c1.732-1,3.464-2,5.196-3c3.535-2.04,4.748-6.749,2.69-10.261
						c-2.073-3.539-6.719-4.735-10.262-2.69c-1.732,0.999-3.464,1.999-5.195,3c-3.535,2.041-4.749,6.748-2.691,10.261
						C60.567,212.388,65.215,213.586,68.756,211.54L68.756,211.54z"/>
				</g>
			</g>
		</g>
	</g>
	<g>
		<g>
			<path fill="#FAA631" stroke="#FAA631" stroke-width="3" stroke-miterlimit="10" d="M258.5,164.96
				c-13.151,0-23.813-11.999-23.813-11.999s10.661-12.001,23.813-12.001c6.416,0,13.906-2.079,18.188,0
				c4.494,2.183,5.625,8.606,5.625,12.001c0,3.544-2.646,9.801-7.5,11.999C270.596,166.867,264.613,164.959,258.5,164.96z"/>
			<g>
				<g>
					<path fill="#C75E28" d="M258.313,145.085c-2,0-4,0-6,0c-4.089,0-7.5,3.412-7.5,7.5c0,4.089,3.411,7.5,7.5,7.5c2,0,4,0,6,0
						c4.089,0,7.5-3.411,7.5-7.5C265.813,148.497,262.401,145.085,258.313,145.085L258.313,145.085z"/>
				</g>
			</g>
		</g>
		<g>
			<path fill="#FAA631" stroke="#FAA631" stroke-width="3" stroke-miterlimit="10" d="M50.721,140.884
				c13.151,0,23.813,11.999,23.813,11.999s-10.661,12.001-23.813,12.001c-6.416,0-13.906,2.079-18.188,0
				c-4.494-2.183-5.625-8.606-5.625-12.001c0-3.545,2.646-9.801,7.5-11.999C38.625,138.977,44.608,140.884,50.721,140.884z"/>
			<g>
				<g>
					<path fill="#C75E28" d="M50.908,160.759c2,0,4,0,6,0c4.088,0,7.5-3.411,7.5-7.5c0-4.088-3.412-7.5-7.5-7.5c-2,0-4,0-6,0
						c-4.088,0-7.5,3.412-7.5,7.5C43.408,157.348,46.82,160.759,50.908,160.759L50.908,160.759z"/>
				</g>
			</g>
		</g>
	</g>
	<g>
		<g>
			<path fill="#FAA631" stroke="#FAA631" stroke-width="3" stroke-miterlimit="10" d="M238.563,215.292
				c-11.39-6.575-14.623-22.298-14.623-22.298s15.233-5.063,26.623,1.514c5.556,3.207,13.082,5.152,15.751,9.094
				c2.801,4.137,0.568,10.266-1.13,13.205c-1.771,3.07-7.191,7.166-12.494,6.642C248.084,222.991,243.857,218.348,238.563,215.292z"
				/>
			<g>
				<g>
					<path fill="#C75E28" d="M248.372,198.006c-1.731-1.001-3.464-2.001-5.196-3c-3.542-2.044-8.188-0.849-10.261,2.69
						c-2.058,3.511-0.846,8.222,2.69,10.261c1.732,1,3.464,2,5.196,3c3.541,2.046,8.188,0.848,10.261-2.69
						C253.121,204.754,251.907,200.047,248.372,198.006L248.372,198.006z"/>
				</g>
			</g>
		</g>
		<g>
			<path fill="#FAA631" stroke="#FAA631" stroke-width="3" stroke-miterlimit="10" d="M70.659,90.552
				c11.389,6.576,14.622,22.298,14.622,22.298s-15.233,5.063-26.622-1.513c-5.556-3.208-13.083-5.153-15.751-9.094
				c-2.801-4.137-0.568-10.266,1.129-13.206c1.772-3.07,7.192-7.166,12.495-6.642C61.137,82.853,65.365,87.496,70.659,90.552z"/>
			<g>
				<g>
					<path fill="#C75E28" d="M60.849,107.838c1.731,1,3.463,2,5.195,3c3.542,2.044,8.189,0.848,10.262-2.691
						c2.057-3.512,0.845-8.221-2.69-10.261c-1.732-1-3.464-2-5.196-3c-3.541-2.045-8.189-0.847-10.261,2.691
						C56.1,101.09,57.314,105.797,60.849,107.838L60.849,107.838z"/>
				</g>
			</g>
		</g>
	</g>
	<g>
		<g>
			<path fill="#FAA631" stroke="#FAA631" stroke-width="3" stroke-miterlimit="10" d="M196.13,248.912
				c-6.575-11.39-1.515-26.621-1.515-26.621s15.724,3.231,22.299,14.621c3.209,5.556,8.753,11.004,9.094,15.751
				c0.357,4.983-4.641,9.175-7.58,10.872c-3.07,1.772-9.812,2.609-14.142-0.496C200.525,260.34,199.188,254.205,196.13,248.912z"/>
			<g>
				<g>
					<path fill="#C75E28" d="M213.229,238.776c-1-1.732-2-3.464-3-5.196c-2.039-3.536-6.75-4.748-10.261-2.69
						c-3.539,2.072-4.734,6.719-2.69,10.261c0.999,1.732,1.999,3.465,3,5.196c2.041,3.535,6.748,4.749,10.261,2.69
						C214.076,246.965,215.274,242.317,213.229,238.776L213.229,238.776z"/>
				</g>
			</g>
		</g>
		<g>
			<path fill="#FAA631" stroke="#FAA631" stroke-width="3" stroke-miterlimit="10" d="M113.091,56.932
				c6.576,11.389,1.515,26.621,1.515,26.621s-15.724-3.231-22.299-14.621c-3.208-5.556-8.752-11.004-9.094-15.751
				c-0.357-4.983,4.641-9.174,7.581-10.872c3.07-1.772,9.812-2.609,14.142,0.497C108.695,45.503,110.034,51.638,113.091,56.932z"/>
			<g>
				<g>
					<path fill="#C75E28" d="M95.992,67.067c1,1.732,2,3.464,3,5.196c2.041,3.535,6.75,4.748,10.261,2.69
						c3.539-2.073,4.735-6.719,2.691-10.262c-1-1.732-2-3.464-3-5.195c-2.042-3.535-6.749-4.749-10.261-2.691
						C95.145,58.878,93.946,63.526,95.992,67.067L95.992,67.067z"/>
				</g>
			</g>
		</g>
	</g>
</g>
</svg>
