<?xml version="1.0" encoding="utf-8"?>
<!-- Generator: Adobe Illustrator 16.0.0, SVG Export Plug-In . SVG Version: 6.00 Build 0)  -->
<!DOCTYPE svg PUBLIC "-//W3C//DTD SVG 1.1//EN" "http://www.w3.org/Graphics/SVG/1.1/DTD/svg11.dtd">
<svg version="1.1" id="Layer_1" xmlns="http://www.w3.org/2000/svg" xmlns:xlink="http://www.w3.org/1999/xlink" x="0px" y="0px"
	 width="308px" height="308px" viewBox="0 0 308 308" enable-background="new 0 0 308 308" xml:space="preserve">
<g id="base">
	<circle fill="#951B1F" stroke="#951B1F" stroke-width="3" stroke-miterlimit="10" cx="153.676" cy="154.703" r="150"/>
</g>
<g id="middial">
	
		<radialGradient id="SVGID_1_" cx="295.6289" cy="-113.6133" r="95.7503" gradientTransform="matrix(1 0 0 -1 -143.48 42.9805)" gradientUnits="userSpaceOnUse">
		<stop  offset="0.0418" style="stop-color:#FFFFFF"/>
		<stop  offset="1" style="stop-color:#FBB041"/>
	</radialGradient>
	
		<ellipse fill="url(#SVGID_1_)" stroke="#FBB041" stroke-width="3" stroke-miterlimit="10" cx="152.148" cy="156.594" rx="96" ry="95.5"/>
</g>
<g id="dial">
	<g>
		<g>
			<g>
				<path fill="#FAA631" stroke="#FAA631" stroke-width="3" stroke-miterlimit="10" d="M166.648,50.031
					c0,13.151-12,23.813-12,23.813s-12-10.661-12-23.813c0-6.415-2.079-13.905,0-18.188c2.183-4.494,8.605-5.625,12-5.625
					c3.546,0,9.803,2.646,12,7.5C168.557,37.937,166.648,43.919,166.648,50.031z"/>
				<g>
					<g>
						<path fill="#C85F28" d="M146.773,50.22c0,2,0,4,0,6c0,4.088,3.412,7.5,7.5,7.5s7.5-3.412,7.5-7.5c0-2,0-4,0-6
							c0-4.088-3.412-7.5-7.5-7.5S146.773,46.131,146.773,50.22L146.773,50.22z"/>
					</g>
				</g>
			</g>
			<g>
				<path fill="#FAA631" stroke="#FAA631" stroke-width="3" stroke-miterlimit="10" d="M142.572,257.812
					c0-13.15,12-23.813,12-23.813s12,10.661,12,23.813c0,6.416,2.079,13.906,0,18.188c-2.183,4.494-8.606,5.625-12,5.625
					c-3.546,0-9.803-2.646-12-7.5C140.665,269.907,142.572,263.924,142.572,257.812z"/>
				<g>
					<g>
						<path fill="#C85F28" d="M162.447,257.624c0-2,0-4,0-6c0-4.088-3.412-7.5-7.5-7.5s-7.5,3.412-7.5,7.5c0,2,0,4,0,6
							c0,4.088,3.412,7.5,7.5,7.5S162.447,261.712,162.447,257.624L162.447,257.624z"/>
					</g>
				</g>
			</g>
		</g>
		<g>
			<g>
				<path fill="#FAA631" stroke="#FAA631" stroke-width="3" stroke-miterlimit="10" d="M216.98,69.97
					c-6.576,11.389-22.298,14.622-22.298,14.622s-5.063-15.233,1.513-26.622c3.208-5.556,5.153-13.083,9.094-15.751
					c4.138-2.801,10.266-0.568,13.206,1.129c3.07,1.772,7.166,7.192,6.643,12.495C224.681,60.449,220.036,64.676,216.98,69.97z"/>
				<g>
					<g>
						<path fill="#C85F28" d="M199.694,60.16c-1,1.73-2,3.463-3,5.194c-2.044,3.542-0.848,8.189,2.691,10.263
							c3.512,2.057,8.221,0.845,10.261-2.69c1-1.732,2-3.464,3-5.196c2.045-3.541,0.847-8.188-2.691-10.261
							C206.442,55.412,201.735,56.625,199.694,60.16L199.694,60.16z"/>
					</g>
				</g>
			</g>
			<g>
				<path fill="#FAA631" stroke="#FAA631" stroke-width="3" stroke-miterlimit="10" d="M92.24,237.874
					c6.576-11.39,22.298-14.622,22.298-14.622s5.063,15.232-1.513,26.622c-3.208,5.556-5.153,13.083-9.094,15.751
					c-4.138,2.801-10.267,0.567-13.206-1.129c-3.07-1.772-7.166-7.192-6.643-12.495C84.541,247.395,89.186,243.167,92.24,237.874z"
					/>
				<g>
					<g>
						<path fill="#C85F28" d="M109.527,247.684c1-1.73,2-3.463,3-5.195c2.044-3.542,0.848-8.188-2.691-10.262
							c-3.512-2.057-8.221-0.845-10.261,2.69c-1,1.731-2,3.464-3,5.195c-2.045,3.541-0.847,8.189,2.691,10.262
							C102.778,252.432,107.485,251.218,109.527,247.684L109.527,247.684z"/>
					</g>
				</g>
			</g>
		</g>
		<g>
			<g>
				<path fill="#FAA631" stroke="#FAA631" stroke-width="3" stroke-miterlimit="10" d="M250.601,112.401
					c-11.389,6.576-26.62,1.516-26.62,1.516s3.231-15.725,14.62-22.299c5.557-3.208,11.004-8.752,15.752-9.095
					c4.983-0.356,9.174,4.642,10.872,7.581c1.771,3.07,2.607,9.813-0.497,14.143C262.029,108.006,255.896,109.345,250.601,112.401z"
					/>
				<g>
					<g>
						<path fill="#C85F28" d="M240.466,95.303c-1.731,1-3.464,2-5.195,3c-3.535,2.041-4.748,6.75-2.69,10.261
							c2.072,3.539,6.72,4.735,10.262,2.691c1.731-1,3.464-2,5.194-3c3.535-2.042,4.749-6.749,2.69-10.261
							C248.653,94.456,244.007,93.258,240.466,95.303L240.466,95.303z"/>
					</g>
				</g>
			</g>
			<g>
				<path fill="#FAA631" stroke="#FAA631" stroke-width="3" stroke-miterlimit="10" d="M58.621,195.44
					c11.39-6.575,26.621-1.515,26.621-1.515s-3.23,15.724-14.621,22.299c-5.556,3.208-11.004,8.752-15.751,9.094
					c-4.982,0.357-9.174-4.641-10.872-7.581c-1.771-3.069-2.608-9.812,0.497-14.142C47.192,199.837,53.327,198.499,58.621,195.44z"
					/>
				<g>
					<g>
						<path fill="#C85F28" d="M68.756,212.541c1.732-1,3.465-2,5.196-3c3.535-2.041,4.748-6.75,2.69-10.262
							c-2.073-3.538-6.72-4.734-10.263-2.69c-1.731,1-3.464,2-5.194,3c-3.535,2.042-4.749,6.749-2.691,10.261
							C60.567,213.388,65.215,214.586,68.756,212.541L68.756,212.541z"/>
					</g>
				</g>
			</g>
		</g>
		<g>
			<g>
				<path fill="#FAA631" stroke="#FAA631" stroke-width="3" stroke-miterlimit="10" d="M258.5,165.96
					c-13.15,0-23.813-11.999-23.813-11.999s10.661-12.001,23.813-12.001c6.416,0,13.906-2.079,18.188,0
					c4.494,2.183,5.625,8.605,5.625,12.001c0,3.545-2.646,9.801-7.5,11.999C270.597,167.867,264.613,165.958,258.5,165.96z"/>
				<g>
					<g>
						<path fill="#C85F28" d="M258.313,146.085c-2,0-4,0-6,0c-4.089,0-7.5,3.412-7.5,7.5s3.411,7.5,7.5,7.5c2,0,4,0,6,0
							c4.089,0,7.5-3.412,7.5-7.5S262.401,146.085,258.313,146.085L258.313,146.085z"/>
					</g>
				</g>
			</g>
			<g>
				<path fill="#FAA631" stroke="#FAA631" stroke-width="3" stroke-miterlimit="10" d="M50.722,141.884
					c13.15,0,23.813,11.999,23.813,11.999s-10.661,12.001-23.813,12.001c-6.416,0-13.906,2.079-18.188,0
					c-4.494-2.183-5.625-8.606-5.625-12.001c0-3.545,2.646-9.801,7.5-11.999C38.625,139.977,44.608,141.884,50.722,141.884z"/>
				<g>
					<g>
						<path fill="#C85F28" d="M50.908,161.759c2,0,4,0,6,0c4.088,0,7.5-3.412,7.5-7.5s-3.412-7.5-7.5-7.5c-2,0-4,0-6,0
							c-4.088,0-7.5,3.412-7.5,7.5S46.82,161.759,50.908,161.759L50.908,161.759z"/>
					</g>
				</g>
			</g>
		</g>
		<g>
			<g>
				<path fill="#FAA631" stroke="#FAA631" stroke-width="3" stroke-miterlimit="10" d="M238.563,216.292
					c-11.39-6.576-14.623-22.298-14.623-22.298s15.233-5.063,26.623,1.513c5.556,3.208,13.082,5.153,15.751,9.094
					c2.801,4.137,0.568,10.267-1.13,13.206c-1.771,3.07-7.191,7.166-12.494,6.642C248.085,223.991,243.857,219.348,238.563,216.292z
					"/>
				<g>
					<g>
						<path fill="#C85F28" d="M248.372,199.005c-1.73-1-3.464-2-5.195-3c-3.542-2.044-8.188-0.848-10.262,2.69
							c-2.058,3.512-0.846,8.222,2.69,10.262c1.732,1,3.464,2,5.196,3c3.541,2.045,8.188,0.847,10.261-2.691
							C253.121,205.754,251.907,201.047,248.372,199.005L248.372,199.005z"/>
					</g>
				</g>
			</g>
			<g>
				<path fill="#FAA631" stroke="#FAA631" stroke-width="3" stroke-miterlimit="10" d="M70.659,91.552
					c11.389,6.576,14.622,22.298,14.622,22.298s-15.233,5.063-26.622-1.513c-5.556-3.208-13.083-5.153-15.751-9.094
					c-2.801-4.138-0.568-10.267,1.129-13.206c1.772-3.07,7.192-7.166,12.495-6.643C61.138,83.853,65.365,88.496,70.659,91.552z"/>
				<g>
					<g>
						<path fill="#C85F28" d="M60.85,108.838c1.73,1,3.463,2,5.194,3c3.542,2.044,8.189,0.848,10.263-2.691
							c2.057-3.512,0.845-8.221-2.69-10.261c-1.732-1-3.464-2-5.196-3c-3.541-2.045-8.188-0.847-10.261,2.691
							C56.101,102.09,57.314,106.797,60.85,108.838L60.85,108.838z"/>
					</g>
				</g>
			</g>
		</g>
		<g>
			<g>
				<path fill="#FAA631" stroke="#FAA631" stroke-width="3" stroke-miterlimit="10" d="M196.13,249.912
					c-6.575-11.39-1.515-26.621-1.515-26.621s15.725,3.23,22.299,14.621c3.209,5.556,8.754,11.004,9.095,15.751
					c0.356,4.982-4.642,9.174-7.58,10.872c-3.07,1.771-9.813,2.608-14.143-0.497C200.526,261.34,199.188,255.206,196.13,249.912z"/>
				<g>
					<g>
						<path fill="#C85F28" d="M213.229,239.775c-1-1.731-2-3.464-3-5.195c-2.041-3.535-6.75-4.748-10.261-2.69
							c-3.539,2.073-4.735,6.719-2.691,10.262c1,1.732,2,3.464,3,5.195c2.042,3.535,6.749,4.749,10.261,2.691
							C214.076,247.965,215.274,243.316,213.229,239.775L213.229,239.775z"/>
					</g>
				</g>
			</g>
			<g>
				<path fill="#FAA631" stroke="#FAA631" stroke-width="3" stroke-miterlimit="10" d="M113.091,57.932
					c6.576,11.389,1.516,26.621,1.516,26.621s-15.725-3.231-22.299-14.621c-3.208-5.556-8.752-11.004-9.095-15.751
					c-0.356-4.983,4.642-9.174,7.581-10.872c3.07-1.771,9.813-2.608,14.143,0.497C108.695,46.503,110.034,52.638,113.091,57.932z"/>
				<g>
					<g>
						<path fill="#C85F28" d="M95.992,68.066c1,1.732,2,3.464,3,5.196c2.041,3.535,6.75,4.748,10.261,2.69
							c3.539-2.073,4.735-6.72,2.691-10.263c-1-1.731-2-3.464-3-5.194c-2.042-3.535-6.749-4.749-10.261-2.691
							C95.146,59.878,93.946,64.525,95.992,68.066L95.992,68.066z"/>
					</g>
				</g>
			</g>
		</g>
	</g>
</g>
</svg>
